# xmcd
#
# Track frame offsets: 
#        150
#        17262
#        35225
#        51222
#        70392
#        87477
#        104387
#        122727
#        140372
#        158472
#        177197
#
# Disc length: 2658 seconds
#
# Revision: 1
# Processed by: cddbd v1.5.2PL0 Copyright (c) Steve Scherf et al.
# Submitted via: ExactAudioCopyFreeDBPlugin 1.0
#
DISCID=8e0a600b
DTITLE=渡辺美奈代 - HOPPING
DYEAR=1987
DGENRE=JPop
TTITLE0=太陽がやってきた
TTITLE1=異国のタンデム
TTITLE2=不良のたまご
TTITLE3=カメオのコンパクト
TTITLE4=君はキューピッド
TTITLE5=PINKのCHAO
TTITLE6=Heart DE Motion
TTITLE7=TOO ADULT
TTITLE8=シーツの舟
TTITLE9=いじめないで
TTITLE10=美奈代SPECIAL (DATE and TALK)
EXTD=YEAR: 1987
EXTT0=
EXTT1=
EXTT2=
EXTT3=
EXTT4=
EXTT5=
EXTT6=
EXTT7=
EXTT8=
EXTT9=
EXTT10=
PLAYORDER=
